<svg id="Layer_1" data-name="Layer 1" xmlns="http://www.w3.org/2000/svg" viewBox="0 0 1191 400.31"><defs><style>.cls-1{fill:#f0c0c3;}.cls-2{fill:#f5e0e2;}.cls-3,.cls-4,.cls-6{fill:#3a4664;}.cls-4{font-size:199.33px;font-family:OpenSans-Light, Open Sans;font-weight:300;}.cls-5,.cls-7{fill:#e89ea0;}.cls-5{font-family:OpenSans-Regular, Open Sans;font-weight:400;}.cls-6{font-size:56.37px;font-family:OpenSans-SemiBold, Open Sans;font-weight:600;}.cls-8{fill:#d36a6a;}</style></defs><title>Artboard 25nov</title><path class="cls-1" d="M186.44,52.52h0c0-10-.06-20.05,0-30.07,0-2-.51-2.66-2.59-2.63-11.48.18-23,.65-34.43,1q-17.84.5-35.66,1-17.22.5-34.43,1c-12.47.34-24.93.61-37.39,1-5.41.19-10.83,0-16.23.48-1.83.16-2.64.74-2.5,2.71.82,11.69,1.57,23.38,2.32,35.07.82,13,1.65,26,2.42,39,.6,10.15,1.07,20.31,1.68,30.46.91,15.3,1.92,30.59,2.85,45.89q1.32,21.48,2.56,43c.33,5.48.65,11,1,16.44q1.39,21.84,2.8,43.68,1,15.59,1.94,31.17c.88,14.73,1.71,29.47,2.57,44.2.31,5.32.66,10.63.93,16,.05,1.14.5,1.48,1.53,1.13.7-.23,1.39-.5,2.07-.78q20.69-8.56,41.37-17.14Q137.13,335.29,185,315.6c1.83-.75,2.44-1.58,2.42-3.55-.34-29.24,0-58.48-.41-87.73-.61-47.89.28-95.79-.57-143.69C186.29,71.26,186.44,61.89,186.44,52.52Z"/><path class="cls-1" d="M186.44,52.52c0,9.37-.15,18.74,0,28.11.85,47.9,0,95.8.57,143.69.37,29.25.07,58.49.41,87.73,0,2-.59,2.8-2.42,3.55q-47.93,19.65-95.76,39.47-20.7,8.54-41.37,17.14c-.68.28-1.37.55-2.07.78-1,.35-1.48,0-1.53-1.13-.27-5.33-.62-10.64-.93-16-.86-14.73-1.69-29.47-2.57-44.2q-.93-15.58-1.94-31.17-1.38-21.84-2.8-43.68c-.35-5.48-.67-11-1-16.44q-1.27-21.48-2.56-43c-.93-15.3-1.94-30.59-2.85-45.89C29,121.4,28.56,111.24,28,101.09c-.77-13-1.6-26-2.42-39C24.79,50.37,24,38.68,23.22,27c-.14-2,.67-2.55,2.5-2.71C31.12,23.8,36.54,24,42,23.8c12.46-.43,24.92-.7,37.39-1q17.2-.47,34.43-1,17.82-.52,35.66-1c11.48-.32,22.95-.79,34.43-1,2.08,0,2.61.6,2.59,2.63-.1,10,0,20.05,0,30.07ZM40,146.89c6.53-4.37,8.11-6.59,9.77-13.59.41-1.75.77-3.51,1.19-5.26q6.66-27.63,13.33-55.27c2.52-10.41,5-20.81,7.63-31.19.48-1.89.22-2.64-1.93-2.49-3.09.23-6.21.31-9.31.42-8.18.29-16.35.78-24.53,1.06-1.77,0-2.44.65-2.15,2.29.7,4,.62,8.15.85,12.22.5,8.81,1.06,17.62,1.54,26.44.31,5.55.7,11.09,1,16.64.45,8.73.9,17.47,1.51,26.19C39.42,131.78,39.65,139.22,40,146.89ZM176.33,240.2c-8.72,26.71-17.24,52.78-25.93,79.37,8.51-3.41,16.38-6.63,24.31-9.68,1.87-.71,2.39-1.69,2.37-3.61-.24-21.67-.38-43.34-.55-65C176.53,241.18,176.5,241.1,176.33,240.2Zm-92-185.28c-1.07,0-2.14-.05-3.2,0-1.55.1-2.53.48-3,2.46C75.4,71,72.37,84.49,69.37,98q-4.91,22.22-9.9,44.42c-.39,1.71.11,1.86,1.55,1.56a63.5,63.5,0,0,1,7.21-1.23,2.74,2.74,0,0,0,2.9-2.62C73,130.56,75,121,76.91,111.39Q82.22,85.14,87.52,58.9C88.34,54.9,88.42,54.91,84.38,54.92Zm53,269.81c2.67-1,4.74-1.79,6.78-2.62a2.35,2.35,0,0,0,1.35-1.64c1.61-5.58,3.27-11.14,4.91-16.71Q156.19,283.87,162,264q4.34-14.84,8.59-29.69c.19-.65,1.12-1.63,0-2.13-.89-.38-1.75.35-2.33,1a5.52,5.52,0,0,0-.82,1.75c-2.88,8.45-5.78,16.9-8.62,25.37q-7.06,21.07-14.07,42.2Z"/><path class="cls-2" d="M40,146.89c-.37-7.67-.6-15.11-1.12-22.54-.61-8.72-1.06-17.46-1.51-26.19-.28-5.55-.67-11.09-1-16.64-.48-8.82-1-17.63-1.54-26.44C34.64,51,34.72,46.9,34,42.86c-.29-1.64.38-2.24,2.15-2.29,8.18-.28,16.35-.77,24.53-1.06,3.1-.11,6.22-.19,9.31-.42,2.15-.15,2.41.6,1.93,2.49C69.34,52,66.83,62.36,64.31,72.77Q57.62,100.4,51,128c-.42,1.75-.78,3.51-1.19,5.26C48.13,140.3,46.55,142.52,40,146.89Z"/><path class="cls-2" d="M176.33,240.2c.17.9.2,1,.2,1.06.17,21.68.31,43.35.55,65,0,1.92-.5,2.9-2.37,3.61-7.93,3.05-15.8,6.27-24.31,9.68C159.09,293,167.61,266.91,176.33,240.2Z"/><path class="cls-2" d="M84.38,54.92c4,0,4,0,3.14,4q-5.34,26.24-10.61,52.49C75,121,73,130.56,71.13,140.15a2.74,2.74,0,0,1-2.9,2.62A63.5,63.5,0,0,0,61,144c-1.44.3-1.94.15-1.55-1.56q5-22.18,9.9-44.42c3-13.53,6-27.06,8.86-40.63.42-2,1.4-2.36,3-2.46C82.24,54.87,83.31,54.92,84.38,54.92Z"/><path class="cls-2" d="M137.33,324.73l7.4-22.22q7-21.11,14.07-42.2c2.84-8.47,5.74-16.92,8.62-25.37a5.52,5.52,0,0,1,.82-1.75c.58-.68,1.44-1.41,2.33-1,1.15.5.22,1.48,0,2.13Q166.37,249.15,162,264q-5.81,19.89-11.64,39.78c-1.64,5.57-3.3,11.13-4.91,16.71a2.35,2.35,0,0,1-1.35,1.64C142.07,322.94,140,323.71,137.33,324.73Z"/><path class="cls-3" d="M68.82.5C83.94.5,99.07.74,114.19.44,144.76-.15,175.33.26,205.9,0c4.63,0,4.64,0,4.63,4.69,0,14.79.13,29.59-.1,44.38-.65,41.5,0,83-.51,124.5s-.09,83-.52,124.5q-.15,14.18-.23,28.34a3.21,3.21,0,0,1-2.28,3.31q-31,13.69-62,27.46-47.55,21.07-95.06,42.24c-2.83,1.27-4.8,1.28-7.27-.71-4.54-3.65-9.36-7-14.13-10.33a4.65,4.65,0,0,1-2.09-3.9c-1.07-15.88-2.24-31.77-3.33-47.65-.91-13.27-1.71-26.54-2.64-39.81-1-15.14-2.22-30.28-3.28-45.43-.76-10.73-1.38-21.46-2.13-32.19-.9-12.85-1.89-25.7-2.79-38.56-.74-10.64-1.39-21.29-2.13-31.94C9.17,136,8.2,123,7.29,110.11c-.57-8-1.08-16-1.64-24.08C4.89,75.14,4.1,64.25,3.34,53.37Q2.5,41.45,1.72,29.53C1.18,21.51.8,13.47,0,5.46-.2,3,.6,2.22,2.82,2.09,12.41,1.53,22,.47,31.59.55,44,.66,56.41.58,68.82.58Zm105,52.1c0-9-.1-16.8.06-24.6,0-2.53-.73-3.26-3.22-3.15-13.13.56-26.26,1-39.38,1.45q-21.18.75-42.34,1.47c-12.81.42-25.61.76-38.42,1.16-2.13.07-4.26.31-6.39.4-1.28.05-1.81.66-1.6,1.88.51,2.86.29,5.74.46,8.61q1.2,20.66,2.38,41.3c.55,9.92,1,19.84,1.57,29.76.76,13.68,1.6,27.37,2.36,41.05.56,10,1,20,1.58,30q1.19,21.63,2.41,43.27c.36,6.48.69,12.95,1,19.43q1.18,20.89,2.38,41.79c.38,6.8.7,13.61,1.08,20.41.78,13.85,1.6,27.7,2.36,41.55.18,3.44.08,3.44,3.18,2.21l56.14-22.24c18.1-7.18,36.18-14.39,54.31-21.49,2.11-.82,2.84-2,2.45-4.07a39.86,39.86,0,0,1-.3-6.64c-.27-17.58,0-35.16-.43-52.74-.49-19.14,0-38.29-.5-57.43-.48-18.39-.2-36.8-.45-55.2C174.18,104.33,174.19,77.87,173.8,52.6Z"/><text class="cls-4" transform="translate(245.14 202.41)">face<tspan class="cls-5" x="369.45" y="0">world</tspan></text><text class="cls-6" transform="translate(251.22 296)">World’s <tspan class="cls-7" x="215.87" y="0">Renowned</tspan><tspan class="cls-8" x="504.04" y="0"> </tspan><tspan x="518.69" y="0">Smart Mirror</tspan></text></svg>